<svg xmlns="http://www.w3.org/2000/svg" xmlns:xlink="http://www.w3.org/1999/xlink" width="203.927" height="205.679" viewBox="0 0 203.927 205.679">
  <defs>
    <filter id="Caminho_1" x="65.006" y="0" width="103.003" height="103.232" filterUnits="userSpaceOnUse">
      <feOffset dx="1" dy="3" input="SourceAlpha"/>
      <feGaussianBlur stdDeviation="3" result="blur"/>
      <feFlood flood-opacity="0.161"/>
      <feComposite operator="in" in2="blur"/>
      <feComposite in="SourceGraphic"/>
    </filter>
    <filter id="Caminho_2" x="0" y="65.142" width="102.834" height="103.113" filterUnits="userSpaceOnUse">
      <feOffset dx="1" dy="3" input="SourceAlpha"/>
      <feGaussianBlur stdDeviation="3" result="blur-2"/>
      <feFlood flood-opacity="0.161"/>
      <feComposite operator="in" in2="blur-2"/>
      <feComposite in="SourceGraphic"/>
    </filter>
    <filter id="Caminho_3" x="81.894" y="83.344" width="122.034" height="122.335" filterUnits="userSpaceOnUse">
      <feOffset dx="1" dy="3" input="SourceAlpha"/>
      <feGaussianBlur stdDeviation="3" result="blur-3"/>
      <feFlood flood-opacity="0.161"/>
      <feComposite operator="in" in2="blur-3"/>
      <feComposite in="SourceGraphic"/>
    </filter>
  </defs>
  <g id="Grupo_1" data-name="Grupo 1" transform="translate(-106.169 -44.999)">
    <g id="puzzle_blue" transform="translate(179.175 51)">
      <g transform="matrix(1, 0, 0, 1, -73.01, -6)" filter="url(#Caminho_1)">
        <path id="Caminho_1-2" data-name="Caminho 1" d="M66.157,52.518A8.978,8.978,0,0,0,81.1,58.969a3.856,3.856,0,0,1,2.716-1.019h1.811V82.17A2.8,2.8,0,0,1,82.8,85H58.461V83.189a4.466,4.466,0,0,1,1.132-2.83,9.049,9.049,0,0,0,2.264-5.885V73.343a1.436,1.436,0,0,0-.113-.679.416.416,0,0,0-.113-.34c0-.226-.113-.34-.113-.566,0-.113-.113-.226-.113-.34-.113-.226-.113-.339-.226-.566,0-.113-.113-.226-.113-.34-.113-.113-.113-.34-.226-.453,0-.113-.113-.226-.113-.34-.113-.113-.226-.34-.339-.453s-.113-.226-.226-.226c-.113-.113-.226-.34-.34-.453l-.226-.226-.34-.34c-.113-.113-.226-.113-.226-.226a1.561,1.561,0,0,0-.453-.34c-.113-.113-.226-.113-.226-.226-.113-.113-.34-.226-.453-.34s-.226-.113-.34-.226a.858.858,0,0,0-.453-.226c-.113,0-.226-.113-.34-.113-.113-.113-.34-.113-.453-.226-.113,0-.226-.113-.339-.113a.858.858,0,0,1-.453-.226.416.416,0,0,1-.34-.113c-.113,0-.34-.113-.453-.113H51.9c-.226,0-.34.113-.566.113h-.34a1.606,1.606,0,0,0-.679.226H50.2c-.226.113-.566.226-.792.34h0a8.844,8.844,0,0,0-4.3,4.074V70.4l-.34.679a.351.351,0,0,1-.113.226c-.113.226-.113.34-.226.566,0,.113-.113.226-.113.34s-.113.339-.113.453-.113.226-.113.34V76.06a.681.681,0,0,0,.113.453.416.416,0,0,0,.113.34c0,.113.113.34.113.453s.113.226.113.34.113.226.113.34.113.226.113.339.113.226.113.34.113.226.226.34.113.226.226.34.113.226.226.339.113.226.226.34.113.226.226.34l.226.226a4.466,4.466,0,0,1,1.132,2.83v1.811H22.923a2.8,2.8,0,0,1-2.83-2.83V58.207h-1.81a4.264,4.264,0,0,0-2.716,1.207,7.364,7.364,0,0,1-5.357,1.81A9.341,9.341,0,0,1,.627,52.4a8.94,8.94,0,0,1,8.941-9.168c2.264,0,4.414.376,6,1.847.792.679,1.584,1.548,2.716,1.548H20.1V22.3a2.8,2.8,0,0,1,2.83-2.83H47.257V17.659a4.055,4.055,0,0,0-1.019-2.716,8.465,8.465,0,0,1-2.264-5.659,8.889,8.889,0,1,1,17.769-.34,8.5,8.5,0,0,1-2.264,5.885,4.233,4.233,0,0,0-1.132,2.83V19.47H82.795a2.8,2.8,0,0,1,2.83,2.83V46.633H83.813a4.466,4.466,0,0,1-2.83-1.132,8.9,8.9,0,0,0-14.826,7.017Z" transform="translate(72.38 6)" fill="#3498db"/>
      </g>
    </g>
    <g transform="matrix(1, 0, 0, 1, 106.17, 45)" filter="url(#Caminho_2)">
      <path id="Caminho_2-2" data-name="Caminho 2" d="M66.157,52.518A8.978,8.978,0,0,0,81.1,58.969a3.856,3.856,0,0,1,2.716-1.019h1.811V82.17A2.8,2.8,0,0,1,82.8,85H58.461V83.189a4.466,4.466,0,0,1,1.132-2.83,9.049,9.049,0,0,0,2.264-5.885V73.343a1.436,1.436,0,0,0-.113-.679.416.416,0,0,0-.113-.34c0-.226-.113-.339-.113-.566,0-.113-.113-.226-.113-.34-.113-.226-.113-.34-.226-.566,0-.113-.113-.226-.113-.34-.113-.113-.113-.34-.226-.453,0-.113-.113-.226-.113-.34-.113-.113-.226-.34-.34-.453s-.113-.226-.226-.226c-.113-.113-.226-.34-.34-.453l-.226-.226-.34-.34c-.113-.113-.226-.113-.226-.226a1.561,1.561,0,0,0-.453-.34c-.113-.113-.226-.113-.226-.226-.113-.113-.34-.226-.453-.34s-.226-.113-.34-.226a.858.858,0,0,0-.453-.226c-.113,0-.226-.113-.34-.113-.113-.113-.339-.113-.453-.226-.113,0-.226-.113-.34-.113a.858.858,0,0,1-.453-.226.416.416,0,0,1-.34-.113c-.113,0-.34-.113-.453-.113H51.9c-.226,0-.34.113-.566.113h-.34a1.606,1.606,0,0,0-.679.226H50.2c-.226.113-.566.226-.792.34h0a8.844,8.844,0,0,0-4.3,4.074V70.4l-.34.679a.351.351,0,0,1-.113.226c-.113.226-.113.34-.226.566,0,.113-.113.226-.113.34s-.113.34-.113.453-.113.226-.113.34V76.06a.681.681,0,0,0,.113.453.416.416,0,0,0,.113.34c0,.113.113.34.113.453s.113.226.113.34.113.226.113.34.113.226.113.34.113.226.113.34.113.226.226.34.113.226.226.34.113.226.226.34.113.226.226.34.113.226.226.34l.226.226a4.466,4.466,0,0,1,1.132,2.83v1.811H22.923a2.8,2.8,0,0,1-2.83-2.83V57.837h-1.81a4.055,4.055,0,0,0-2.716,1.019,8.465,8.465,0,0,1-5.66,2.264,8.943,8.943,0,1,1-.34-17.883A8.5,8.5,0,0,1,15.453,45.5a4.233,4.233,0,0,0,2.83,1.132h1.811V22.3a2.8,2.8,0,0,1,2.83-2.83H47.257V17.659c0-1.019-.984-1.924-1.663-2.716-1.358-1.471-1.619-3.509-1.619-5.659a8.958,8.958,0,1,1,17.911-.411,8.728,8.728,0,0,1-1.962,6.07,4.025,4.025,0,0,0-1.207,2.716l-.369,1.811H82.795a2.8,2.8,0,0,1,2.83,2.83V46.633H83.813a4.466,4.466,0,0,1-2.83-1.132,8.9,8.9,0,0,0-14.826,7.017Z" transform="translate(7.21 71.02)" fill="#2ecc71"/>
    </g>
    <path id="puzzle_red" d="M66.157,52.518A8.978,8.978,0,0,0,81.1,58.969a3.856,3.856,0,0,1,2.716-1.019h1.811V82.17A2.8,2.8,0,0,1,82.8,85H58.461V83.189a4.466,4.466,0,0,1,1.132-2.83,9.049,9.049,0,0,0,2.264-5.885V73.343a1.436,1.436,0,0,0-.113-.679.416.416,0,0,0-.113-.34c0-.226-.113-.34-.113-.566,0-.113-.113-.226-.113-.34-.113-.226-.113-.34-.226-.566,0-.113-.113-.226-.113-.34-.113-.113-.113-.34-.226-.453,0-.113-.113-.226-.113-.34-.113-.113-.226-.34-.34-.453s-.113-.226-.226-.226c-.113-.113-.226-.34-.34-.453l-.226-.226-.34-.34c-.113-.113-.226-.113-.226-.226a1.561,1.561,0,0,0-.453-.34c-.113-.113-.226-.113-.226-.226-.113-.113-.34-.226-.453-.34s-.226-.113-.34-.226a.858.858,0,0,0-.453-.226c-.113,0-.226-.113-.34-.113-.113-.113-.34-.113-.453-.226-.113,0-.226-.113-.34-.113a.858.858,0,0,1-.453-.226.416.416,0,0,1-.34-.113c-.113,0-.34-.113-.453-.113H51.9c-.226,0-.34.113-.566.113h-.34a1.606,1.606,0,0,0-.679.226H50.2c-.226.113-.566.226-.792.34h0a8.844,8.844,0,0,0-4.3,4.074V70.4l-.34.679a.351.351,0,0,1-.113.226c-.113.226-.113.34-.226.566,0,.113-.113.226-.113.34s-.113.34-.113.453-.113.226-.113.34V76.06a.681.681,0,0,0,.113.453.416.416,0,0,0,.113.34c0,.113.113.34.113.453s.113.226.113.34.113.226.113.34.113.226.113.34.113.226.113.34.113.226.226.34.113.226.226.34.113.226.226.34.113.226.226.34.113.226.226.34l.226.226a4.466,4.466,0,0,1,1.132,2.83v1.811H22.923a2.8,2.8,0,0,1-2.83-2.83V57.837h-1.81a4.055,4.055,0,0,0-2.716,1.019,8.465,8.465,0,0,1-5.66,2.264,8.943,8.943,0,1,1-.34-17.883A8.5,8.5,0,0,1,15.453,45.5a4.233,4.233,0,0,0,2.83,1.132h1.811V22.3a2.8,2.8,0,0,1,2.83-2.83H47.257V17.659a4.055,4.055,0,0,0-1.019-2.716,8.465,8.465,0,0,1-2.264-5.659,8.889,8.889,0,1,1,17.769-.34,8.5,8.5,0,0,1-2.264,5.885,4.233,4.233,0,0,0-1.132,2.83V19.47H82.795a2.8,2.8,0,0,1,2.83,2.83V46.633H83.813a4.466,4.466,0,0,1-2.83-1.132,8.9,8.9,0,0,0-14.826,7.017Z" transform="translate(113.376 51)" fill="#e56353"/>
    <g id="puzzle_yellow" transform="translate(217.982 134.3) rotate(15.009)">
      <g transform="matrix(0.97, -0.26, 0.26, 0.97, -131.11, -57.29)" filter="url(#Caminho_3)">
        <path id="Caminho_3-2" data-name="Caminho 3" d="M85.624,82.171A2.8,2.8,0,0,1,82.795,85c-.2-.021-.985.01-.985.01s-16.2.355-58.048.22h-.839a2.8,2.8,0,0,1-2.83-2.83V57.837h-1.81a4.055,4.055,0,0,0-2.716,1.019,8.465,8.465,0,0,1-5.66,2.264,8.943,8.943,0,1,1-.34-17.883A8.5,8.5,0,0,1,15.453,45.5a4.233,4.233,0,0,0,2.83,1.132h1.811V22.3a2.8,2.8,0,0,1,2.83-2.83H47.257V17.659a4.055,4.055,0,0,0-1.019-2.716,8.465,8.465,0,0,1-2.264-5.659,8.889,8.889,0,1,1,17.769-.34,8.5,8.5,0,0,1-2.264,5.885,4.233,4.233,0,0,0-1.132,2.83V19.47H82.795a2.8,2.8,0,0,1,2.83,2.83c-.042.365,0,1.268-.042,1.36.014.035.048,57.916.045,57.882A3.114,3.114,0,0,0,85.624,82.171Z" transform="translate(111.21 89.14) rotate(15.01)" fill="#f1c40f"/>
      </g>
    </g>
    <g id="placeholder" transform="translate(449.869 398.252) rotate(15.009)">
      <path id="Caminho_6" data-name="Caminho 6" d="M86,0A10.008,10.008,0,0,0,76,10a9.861,9.861,0,0,0,1.5,5.25l7.822,12.8a.79.79,0,0,0,.567.383.83.83,0,0,0,.85-.4l7.844-12.918A9.863,9.863,0,0,0,96,10,10.008,10.008,0,0,0,86,0Zm0,15a4.993,4.993,0,1,1,3.538-1.462A5,5,0,0,1,86,15Z" transform="translate(-326 -157)" fill="#fff"/>
    </g>
  </g>
</svg>
