<?xml version="1.0"?>
<svg xmlns="http://www.w3.org/2000/svg" xmlns:xlink="http://www.w3.org/1999/xlink" xmlns:svgjs="http://svgjs.com/svgjs" version="1.1" width="512" height="512" x="0" y="0" viewBox="0 0 470.179 470.179" style="enable-background:new 0 0 512 512" xml:space="preserve" class=""><g>
<path xmlns="http://www.w3.org/2000/svg" style="" d="M362.159,289.73c0.624,26.849,24.351,48.702,51.2,48.078c11.863-0.624,23.102-4.995,31.22-12.488  c3.746-3.746,9.366-5.62,14.985-5.62h9.99v133.62c0,8.741-6.868,15.61-15.61,15.61H319.701v-9.99c0-5.62,2.498-11.239,6.244-15.61  c7.493-8.741,12.488-19.98,12.488-32.468c0-1.873,0-3.122,0-4.995c0-0.624,0-0.624,0-1.249c0-1.249,0-2.498-0.624-3.746  c0-0.624,0-1.249-0.624-1.873c0-1.249-0.624-1.873-0.624-3.122c0-0.624-0.624-1.249-0.624-1.873  c-0.624-1.249-0.624-1.873-1.249-3.122c0-0.624-0.624-1.249-0.624-1.873c-0.624-0.624-0.624-1.873-1.249-2.498  c0-0.624-0.624-1.249-0.624-1.873c-0.624-0.624-1.249-1.873-1.873-2.498c-0.624-0.624-0.624-1.249-1.249-1.249  c-0.624-0.624-1.249-1.873-1.873-2.498c-0.624-0.624-0.624-0.624-1.249-1.249c-0.624-0.624-1.249-1.249-1.873-1.873  s-1.249-0.624-1.249-1.249c-0.624-0.624-1.249-1.249-2.498-1.873c-0.624-0.624-1.249-0.624-1.249-1.249  c-0.624-0.624-1.873-1.249-2.498-1.873c-0.624-0.624-1.249-0.624-1.873-1.249c-0.624-0.624-1.873-1.249-2.498-1.249  s-1.249-0.624-1.873-0.624c-0.624-0.624-1.873-0.624-2.498-1.249c-0.624,0-1.249-0.624-1.873-0.624  c-0.624,0-1.873-0.624-2.498-1.249c-0.624,0-1.249,0-1.873-0.624c-0.624,0-1.873-0.624-2.498-0.624s-1.249,0-1.873,0  s-1.873,0-3.122,0c-0.624,0-1.249,0-2.498,0c-0.624,0-1.873,0-2.498,0h-0.624h-2.498c-0.624,0-1.873,0-2.498,0  c-1.249,0-1.873,0.624-3.122,0.624c-0.624,0-1.249,0-1.873,0c-1.249,0-2.498,0.624-3.746,1.249h-0.624  c-1.249,0.624-3.122,1.249-4.371,1.873l0,0c-9.99,4.371-18.732,12.488-23.727,22.478c0,0,0,0,0,0.624  c-0.624,1.249-1.249,2.498-1.873,3.746c0,0,0,0.624-0.624,1.249c-0.624,1.249-0.624,1.873-1.249,3.122  c0,0.624-0.624,1.249-0.624,1.873c0,0.624-0.624,1.873-0.624,2.498c0,0.624-0.624,1.249-0.624,1.873c0,0.624,0,1.873,0,2.498  c0,0.624,0,1.873,0,2.498c0,0.624,0,1.873,0,2.498s0,1.873,0,2.498v0.624c0,0.624,0,1.249,0,1.873v2.498c0,0.624,0,1.249,0,1.873  c0,0.624,0,1.873,0.624,2.498c0,0.624,0,1.249,0.624,1.873c0,0.624,0.624,1.873,0.624,2.498c0,0.624,0.624,1.249,0.624,1.873  c0,0.624,0.624,1.249,0.624,1.873c0,0.624,0.624,1.249,0.624,1.873c0,0.624,0.624,1.249,0.624,1.873  c0,0.624,0.624,1.249,1.249,1.873c0.624,0.624,0.624,1.249,1.249,1.873c0.624,0.624,0.624,1.249,1.249,1.873  c0.624,0.624,0.624,1.249,1.249,1.873c0.624,0.624,0.624,1.249,1.249,1.873c0.624,0.624,0.624,0.624,1.249,1.249  c3.746,4.371,6.244,9.99,6.244,15.61v9.99H123.642c-8.741,0-15.61-6.868-15.61-15.61V319.076h-9.99  c-5.62,0-10.615,1.873-14.985,5.62c-8.117,7.493-19.356,12.488-31.22,12.488c-26.849,1.249-50.576-20.605-51.2-48.078  c-0.624-28.098,21.854-50.576,49.327-50.576c12.488,0,23.727,4.371,32.468,12.488c4.371,3.746,9.366,6.244,15.61,6.244h9.99V123.018  c0-8.741,6.868-15.61,15.61-15.61h134.244v-9.99c0-5.62-1.873-10.615-5.62-14.985c-7.493-8.117-12.488-19.356-12.488-31.22  c-1.249-26.849,20.605-50.576,47.454-51.2c28.098-0.624,50.576,21.854,50.576,49.327c0,12.488-4.371,23.727-12.488,32.468  c-3.746,4.371-6.244,9.366-6.244,15.61v9.99h134.868c8.741,0,15.61,6.868,15.61,15.61v134.244h-9.99  c-5.62,0-11.239-2.498-15.61-6.244c-8.741-7.493-19.98-12.488-32.468-12.488C384.013,239.154,361.535,261.632,362.159,289.73z" fill="#2ecc71" data-original="#e56353" class=""/>
<g xmlns="http://www.w3.org/2000/svg">
</g>
<g xmlns="http://www.w3.org/2000/svg">
</g>
<g xmlns="http://www.w3.org/2000/svg">
</g>
<g xmlns="http://www.w3.org/2000/svg">
</g>
<g xmlns="http://www.w3.org/2000/svg">
</g>
<g xmlns="http://www.w3.org/2000/svg">
</g>
<g xmlns="http://www.w3.org/2000/svg">
</g>
<g xmlns="http://www.w3.org/2000/svg">
</g>
<g xmlns="http://www.w3.org/2000/svg">
</g>
<g xmlns="http://www.w3.org/2000/svg">
</g>
<g xmlns="http://www.w3.org/2000/svg">
</g>
<g xmlns="http://www.w3.org/2000/svg">
</g>
<g xmlns="http://www.w3.org/2000/svg">
</g>
<g xmlns="http://www.w3.org/2000/svg">
</g>
<g xmlns="http://www.w3.org/2000/svg">
</g>
</g></svg>
